<svg width="972" height="825" viewBox="0 0 972 825" fill="none" xmlns="http://www.w3.org/2000/svg">
<path d="M327 304C327 288.333 323.667 274.333 317 262C310.667 249.333 301.667 240.667 290 236C279.667 236 270.833 238 263.5 242C256.167 246 250.167 251.333 245.5 258C240.833 264.667 237.333 272.333 235 281C233 289.667 232 298.5 232 307.5C232 322.833 235 336.333 241 348C247 359.333 255.833 367.333 267.5 372C277.5 372 286.167 370.333 293.5 367C301.167 363.333 307.5 358.5 312.5 352.5C317.5 346.167 321.167 339 323.5 331C325.833 322.667 327 313.667 327 304ZM400 577C409 577 416.5 573.833 422.5 567.5C428.5 561.167 433.167 549.833 436.5 533.5C440.167 517.5 442.667 495.667 444 468C445.333 440.667 446 405.667 446 363C446 320.667 445.333 285.667 444 258C442.667 230.333 440.167 208.5 436.5 192.5C433.167 176.167 428.5 164.833 422.5 158.5C416.5 152.167 409 149 400 149C390.667 149 383 149.167 377 149.5C371 149.5 366.167 149.667 362.5 150C359.167 150.333 356.833 150.833 355.5 151.5C354.167 151.833 353.5 152.333 353.5 153C353.5 154 353 154.5 352 154.5C350.333 154.5 347.167 153.833 342.5 152.5C338.167 151.167 331.333 149.5 322 147.5C316.333 146.5 310.5 145.667 304.5 145C298.833 144.333 292.833 144 286.5 144C259.167 144 235.5 148.167 215.5 156.5C195.5 164.5 179 175.833 166 190.5C153 205.167 143.333 222.5 137 242.5C130.667 262.5 127.5 284.167 127.5 307.5C127.5 330.833 130.667 352.333 137 372C143.333 391.667 153 408.5 166 422.5C179 436.833 195.5 447.833 215.5 455.5C235.5 463.5 259.167 467.5 286.5 467.5C292.833 467.5 299 467.167 305 466.5C311 465.833 316.833 465 322.5 464C326.5 463 330.167 462.5 333.5 462.5C341.5 462.5 346.833 466.333 349.5 474C352.167 481.667 353.5 495.667 353.5 516C353.5 528 354.167 538 355.5 546C356.833 554 359.167 560.167 362.5 564.5C366.167 569.167 371 572.333 377 574C383 576 390.667 577 400 577ZM403 139C413.333 139.667 421.833 143.5 428.5 150.5C435.5 157.5 441 169.5 445 186.5C449 203.5 451.833 226.333 453.5 255C455.167 283.667 456 319.667 456 363C456 407.667 455.167 444.333 453.5 473C451.833 502 448.833 524.833 444.5 541.5C440.5 558.5 434.833 570.333 427.5 577C420.167 583.667 411 587 400 587C393.667 587 388 586.667 383 586C378 585.667 373.5 584.667 369.5 583C353.5 581.333 342.667 575.333 337 565C331.667 554.667 329 537.167 329 512.5C329 491.833 327.667 478.833 325 473.5C311.667 476.167 298.833 477.5 286.5 477.5C265.833 477.5 246.667 475.167 229 470.5C207.333 466.5 188.667 459.667 173 450C157.333 440.333 144.167 428.167 133.5 413.5C123.167 399.167 115.5 382.833 110.5 364.5C105.5 345.833 103 325.667 103 304C103 279 106.333 256 113 235C119.667 213.667 130 195.333 144 180C158 164.333 175.5 152.167 196.5 143.5C217.833 134.833 243 130.5 272 130.5C278.667 130.5 285 131 291 132C297.333 132.667 303.5 133.5 309.5 134.5C313.833 135.5 318.167 136.5 322.5 137.5C326.833 138.167 331.167 139.167 335.5 140.5C339.167 138.833 344.833 137.667 352.5 137C360.5 136 371.5 135.5 385.5 135.5C388.833 135.5 391.833 135.833 394.5 136.5C397.5 137.167 400.333 138 403 139ZM351.5 307.5C351.5 318.5 350 328.833 347 338.5C344 347.833 339.667 356 334 363C328.667 370 321.833 375.5 313.5 379.5C305.5 383.5 296.5 385.5 286.5 385.5C276.167 385.5 267 383.5 259 379.5C251 375.5 244.167 370 238.5 363C233.167 356 229 347.833 226 338.5C223.333 328.833 222 318.5 222 307.5C222 296.5 223.333 286.167 226 276.5C229 266.5 233.167 257.833 238.5 250.5C244.167 242.833 251 236.833 259 232.5C267 228.167 276.167 226 286.5 226C296.5 226 305.5 228.167 313.5 232.5C321.833 236.833 328.667 242.833 334 250.5C339.667 257.833 344 266.5 347 276.5C350 286.167 351.5 296.5 351.5 307.5ZM740.313 304C740.313 288.333 736.979 274.333 730.313 262C723.979 249.333 714.979 240.667 703.313 236C693.313 236 684.646 238 677.313 242C669.979 246 663.813 251.333 658.813 258C654.146 264.667 650.646 272.333 648.313 281C646.313 289.667 645.313 298.5 645.313 307.5C645.313 322.833 648.313 336.333 654.313 348C660.646 359.667 669.479 367.667 680.813 372C690.813 372 699.479 370.333 706.813 367C714.479 363.333 720.813 358.5 725.813 352.5C730.813 346.167 734.479 339 736.813 331C739.146 322.667 740.313 313.667 740.313 304ZM664.313 464C669.979 465 675.813 465.833 681.813 466.5C687.813 467.167 693.813 467.5 699.813 467.5C727.146 467.5 750.813 463.5 770.813 455.5C790.813 447.833 807.313 436.833 820.313 422.5C833.313 408.5 842.979 391.667 849.313 372C855.646 352.333 858.813 330.833 858.813 307.5C858.813 284.167 855.646 262.5 849.313 242.5C842.979 222.5 833.313 205.167 820.313 190.5C807.313 175.833 790.813 164.5 770.813 156.5C750.813 148.167 727.146 144 699.813 144C688.479 144 676.646 145.333 664.313 148C654.979 150 648.146 151.667 643.813 153C639.479 154.333 636.479 155 634.813 155C633.813 155 633.313 154.5 633.313 153.5C633.313 151.833 630.146 150.667 623.813 150C617.479 149.333 605.146 149 586.813 149C577.479 149 569.813 152.167 563.813 158.5C557.813 164.833 552.979 176.167 549.313 192.5C545.979 208.5 543.646 230.333 542.313 258C540.979 285.667 540.313 320.667 540.313 363C540.313 405.667 540.979 440.667 542.313 468C543.646 495.667 545.979 517.5 549.313 533.5C552.979 549.833 557.813 561.167 563.813 567.5C569.813 573.833 577.479 577 586.813 577C596.146 577 603.813 576 609.813 574C615.813 572.333 620.479 569.167 623.813 564.5C627.479 560.167 629.979 554 631.313 546C632.646 538 633.313 528 633.313 516C633.313 495.667 634.646 481.667 637.313 474C639.979 466.333 645.146 462.5 652.813 462.5C655.813 462.5 659.646 463 664.313 464ZM741.813 137.5C763.479 141.5 782.313 148.5 798.313 158.5C814.313 168.5 827.479 181 837.813 196C848.479 210.667 856.313 227.5 861.313 246.5C866.313 265.5 868.813 285.833 868.813 307.5C868.813 332.5 865.479 355.5 858.813 376.5C852.146 397.167 841.813 415 827.813 430C814.146 445 796.646 456.667 775.313 465C753.979 473.333 728.813 477.5 699.813 477.5C693.479 477.5 686.979 477.167 680.313 476.5C673.979 475.833 667.979 475 662.313 474C658.313 473 655.146 472.5 652.813 472.5C649.146 472.5 646.646 475.5 645.313 481.5C643.979 487.833 643.313 499.333 643.313 516C643.313 530 642.479 541.5 640.813 550.5C639.146 559.833 636.146 567.167 631.813 572.5C627.479 577.833 621.646 581.5 614.313 583.5C607.313 585.833 598.146 587 586.813 587C579.813 587 573.813 585.833 568.813 583.5C558.146 583.167 549.313 579.333 542.313 572C535.646 565 530.313 553 526.313 536C522.313 519 519.479 496.167 517.813 467.5C516.479 439.167 515.813 403.167 515.813 359.5C515.813 315.167 516.646 278.667 518.313 250C519.979 221 522.813 198 526.813 181C531.146 164 536.979 152.167 544.313 145.5C551.646 138.833 560.979 135.5 572.313 135.5C578.646 135.5 585.813 135.5 593.813 135.5C601.813 135.167 612.646 136.667 626.313 140C628.646 140.667 631.479 140.333 634.813 139C638.479 137.333 642.646 136 647.313 135C653.313 133.667 659.479 132.667 665.813 132C672.479 131 678.979 130.5 685.313 130.5C705.313 130.5 724.146 132.833 741.813 137.5ZM764.813 307.5C764.813 318.5 763.313 328.833 760.313 338.5C757.313 347.833 752.979 356 747.313 363C741.979 370 735.146 375.5 726.813 379.5C718.813 383.5 709.813 385.5 699.813 385.5C689.813 385.5 680.813 383.5 672.813 379.5C664.813 375.5 657.979 370 652.313 363C646.979 356 642.813 347.833 639.813 338.5C636.813 328.833 635.313 318.5 635.313 307.5C635.313 296.5 636.813 286.167 639.813 276.5C642.813 266.5 646.979 257.833 652.313 250.5C657.979 242.833 664.813 236.833 672.813 232.5C680.813 228.167 689.813 226 699.813 226C709.813 226 718.813 228.167 726.813 232.5C735.146 236.833 741.979 242.833 747.313 250.5C752.979 257.833 757.313 266.5 760.313 276.5C763.313 286.167 764.813 296.5 764.813 307.5Z" fill="#FF7A00"/>
<path d="M50.3246 550.25L56.6868 554.076L59.1295 547.201L66.1499 551.423L68.9353 543.583L107.219 566.604L104.433 574.444L111.234 578.534L108.792 585.409L115.373 589.366L91.6755 656.066L86.1908 652.768L82.5911 662.899L88.0758 666.197L83.9191 677.897L73.4981 671.63L76.5836 662.946L71.0988 659.648L74.27 650.723L71.3082 648.941L68.1371 657.867L36.4355 638.803L38.7924 632.17L30.675 627.288L33.1177 620.413L26.7554 616.588L50.3246 550.25ZM60.5985 607.516L71.0195 613.782L67.934 622.467L75.832 627.216L72.7466 635.9L80.6446 640.649L78.5019 646.68L81.6831 648.593L103.367 587.563L96.7851 583.605L99.5705 575.765L68.3077 556.965L65.5222 564.805L59.0503 560.913L38.6522 618.325L45.1242 622.217L42.7673 628.851L67.0097 643.429L69.238 637.157L61.4497 632.474L64.5352 623.789L56.5275 618.974L60.5985 607.516Z" fill="#FF7A00"/>
<path d="M151.928 675.878L159.571 679.479L170.795 639.156L181.795 644.339L169.301 689.224L161.659 685.624L159.702 692.652L153.218 689.597L150.643 698.846L121.116 684.934L123.691 675.686L116.28 672.194L118.236 665.166L112.678 662.547L125.173 617.662L136.057 622.79L124.833 663.113L130.507 665.786L127.932 675.034L149.354 685.127L151.928 675.878Z" fill="#FF7A00"/>
<path d="M236.384 709.977L247.834 714.072L245.294 726.094L236.616 722.991L234.975 730.755L193.395 715.884L195.3 706.867L186.622 703.763L195.938 659.68L204.615 662.784L206.521 653.767L248.101 668.639L246.196 677.656L254.874 680.759L249.157 707.81L201.551 690.783L198.534 705.06L234.691 717.992L236.384 709.977ZM240.195 691.943L242.842 679.419L206.685 666.488L204.038 679.011L240.195 691.943Z" fill="#FF7A00"/>
<path d="M265.577 721.39L277.253 724.298L276.042 732.529L313.304 741.808L315.614 726.105L277.731 716.672L278.961 708.314L269.148 705.87L272.334 684.215L280.762 686.445L282.103 677.327L323.216 687.565L322.005 695.796L330.699 697.961L328.948 709.865L317.148 706.927L318.359 698.696L283.581 690.035L281.346 705.232L320.471 714.975L319.458 722.73L328.029 724.864L324.545 748.546L315.85 746.38L314.658 754.485L271.434 743.722L272.645 735.49L263.826 733.294L265.577 721.39Z" fill="#FF7A00"/>
<path d="M368.767 659.79L380.784 661.647L377.315 699.633L394.392 702.273L393.297 714.255L376.22 711.616L372.751 749.601L389.828 752.241L388.734 764.223L368.621 761.114L369.459 751.936L360.478 750.548L364.203 709.758L345.861 706.923L346.955 694.941L365.297 697.776L368.767 659.79Z" fill="#FF7A00"/>
<path d="M449.534 669.324L507.262 669.177L507.273 676.473L516.233 676.451L516.245 684.387L525.461 684.363L525.501 710.731L516.285 710.755L516.297 718.691L507.337 718.713L507.348 726.009L461.652 726.126L461.717 769.646L449.685 769.676L449.534 669.324ZM504.119 706.69L513.335 706.666L513.307 688.49L504.091 688.514L504.08 681.218L461.585 681.326L461.634 714.094L504.13 713.986L504.119 706.69Z" fill="#FF7A00"/>
<path d="M541.197 737.772L550.349 736.693L549.709 727.499L590.641 722.672L589.84 711.18L548.908 716.007L548.071 704.004L591.927 698.832L592.568 708.026L601.721 706.946L604.657 749.084L613.809 748.005L614.646 760.008L602.315 761.462L601.675 752.268L595.7 752.973L596.341 762.166L552.485 767.339L551.844 758.145L542.691 759.224L541.197 737.772ZM591.477 734.675L553.342 739.172L554.445 755.006L592.581 750.508L591.477 734.675Z" fill="#FF7A00"/>
<path d="M639.756 691.685L668.535 685.481L670.055 697.417L644.404 702.946L645.569 712.088L636.184 714.111L641.521 756.012L629.759 758.548L621.738 695.568L633.5 693.033L634.664 702.175L640.92 700.827L639.756 691.685Z" fill="#FF7A00"/>
<path d="M691.499 639.793L703.146 636.297L709.807 673.855L726.357 668.887L728.458 680.734L711.908 685.702L718.568 723.26L735.119 718.292L737.22 730.139L717.727 735.99L716.118 726.916L707.413 729.529L700.261 689.198L682.484 694.534L680.383 682.686L698.16 677.351L691.499 639.793Z" fill="#FF7A00"/>
<path d="M740.405 664.799L789.98 645.017L792.095 653.987L800.654 650.572L812.814 702.15L801.52 706.656L790.006 657.819L754.341 672.051L765.855 720.888L754.68 725.347L740.405 664.799Z" fill="#FF7A00"/>
<path d="M870.944 652.405L881.755 646.839L885.331 658.596L877.137 662.814L879.446 670.406L840.183 690.618L837.501 681.8L829.307 686.019L816.196 642.912L824.391 638.694L821.709 629.877L860.972 609.666L863.654 618.483L871.848 614.265L879.893 640.716L834.939 663.857L839.185 677.817L873.327 660.242L870.944 652.405ZM865.58 634.77L861.856 622.524L827.714 640.099L831.438 652.346L865.58 634.77Z" fill="#FF7A00"/>
<path d="M901.304 588.135L926.273 572.538L930.438 583.826L908.183 597.727L911.374 606.373L903.232 611.459L917.857 651.086L907.653 657.461L885.671 597.9L895.876 591.525L899.066 600.171L904.494 596.781L901.304 588.135Z" fill="#FF7A00"/>
<ellipse cx="264" cy="307" rx="38" ry="51" fill="#FF7A00"/>
<ellipse cx="678" cy="307" rx="39" ry="51" fill="#FF7A00"/>
</svg>
