<svg width="135" height="118" viewBox="0 0 135 118" fill="none" xmlns="http://www.w3.org/2000/svg">
<path d="M44.952 41.816C44.952 39.8107 44.5253 38.0187 43.672 36.44C42.8613 34.8187 41.7093 33.7093 40.216 33.112C38.8933 33.112 37.7627 33.368 36.824 33.88C35.8853 34.392 35.1173 35.0747 34.52 35.928C33.9227 36.7813 33.4747 37.7627 33.176 38.872C32.92 39.9813 32.792 41.112 32.792 42.264C32.792 44.2267 33.176 45.9547 33.944 47.448C34.712 48.8987 35.8427 49.9227 37.336 50.52C38.616 50.52 39.7253 50.3067 40.664 49.88C41.6453 49.4107 42.456 48.792 43.096 48.024C43.736 47.2133 44.2053 46.296 44.504 45.272C44.8027 44.2053 44.952 43.0533 44.952 41.816ZM54.296 76.76C55.448 76.76 56.408 76.3547 57.176 75.544C57.944 74.7333 58.5413 73.2827 58.968 71.192C59.4373 69.144 59.7573 66.3493 59.928 62.808C60.0987 59.3093 60.184 54.8293 60.184 49.368C60.184 43.9493 60.0987 39.4693 59.928 35.928C59.7573 32.3867 59.4373 29.592 58.968 27.544C58.5413 25.4533 57.944 24.0027 57.176 23.192C56.408 22.3813 55.448 21.976 54.296 21.976C53.1013 21.976 52.12 21.9973 51.352 22.04C50.584 22.04 49.9653 22.0613 49.496 22.104C49.0693 22.1467 48.7707 22.2107 48.6 22.296C48.4293 22.3387 48.344 22.4027 48.344 22.488C48.344 22.616 48.28 22.68 48.152 22.68C47.9387 22.68 47.5333 22.5947 46.936 22.424C46.3813 22.2533 45.5067 22.04 44.312 21.784C43.5867 21.656 42.84 21.5493 42.072 21.464C41.3467 21.3787 40.5787 21.336 39.768 21.336C36.2693 21.336 33.24 21.8693 30.68 22.936C28.12 23.96 26.008 25.4107 24.344 27.288C22.68 29.1653 21.4427 31.384 20.632 33.944C19.8213 36.504 19.416 39.2773 19.416 42.264C19.416 45.2507 19.8213 48.0027 20.632 50.52C21.4427 53.0373 22.68 55.192 24.344 56.984C26.008 58.8187 28.12 60.2267 30.68 61.208C33.24 62.232 36.2693 62.744 39.768 62.744C40.5787 62.744 41.368 62.7013 42.136 62.616C42.904 62.5307 43.6507 62.424 44.376 62.296C44.888 62.168 45.3573 62.104 45.784 62.104C46.808 62.104 47.4907 62.5947 47.832 63.576C48.1733 64.5573 48.344 66.3493 48.344 68.952C48.344 70.488 48.4293 71.768 48.6 72.792C48.7707 73.816 49.0693 74.6053 49.496 75.16C49.9653 75.7573 50.584 76.1627 51.352 76.376C52.12 76.632 53.1013 76.76 54.296 76.76ZM54.68 20.696C56.0027 20.7813 57.0907 21.272 57.944 22.168C58.84 23.064 59.544 24.6 60.056 26.776C60.568 28.952 60.9307 31.8747 61.144 35.544C61.3573 39.2133 61.464 43.8213 61.464 49.368C61.464 55.0853 61.3573 59.7787 61.144 63.448C60.9307 67.16 60.5467 70.0827 59.992 72.216C59.48 74.392 58.7547 75.9067 57.816 76.76C56.8773 77.6133 55.704 78.04 54.296 78.04C53.4853 78.04 52.76 77.9973 52.12 77.912C51.48 77.8693 50.904 77.7413 50.392 77.528C48.344 77.3147 46.9573 76.5467 46.232 75.224C45.5493 73.9013 45.208 71.6613 45.208 68.504C45.208 65.8587 45.0373 64.1947 44.696 63.512C42.9893 63.8533 41.3467 64.024 39.768 64.024C37.1227 64.024 34.6693 63.7253 32.408 63.128C29.6347 62.616 27.2453 61.7413 25.24 60.504C23.2347 59.2667 21.5493 57.7093 20.184 55.832C18.8613 53.9973 17.88 51.9067 17.24 49.56C16.6 47.1707 16.28 44.5893 16.28 41.816C16.28 38.616 16.7067 35.672 17.56 32.984C18.4133 30.2533 19.736 27.9067 21.528 25.944C23.32 23.9387 25.56 22.3813 28.248 21.272C30.9787 20.1627 34.2 19.608 37.912 19.608C38.7653 19.608 39.576 19.672 40.344 19.8C41.1547 19.8853 41.944 19.992 42.712 20.12C43.2667 20.248 43.8213 20.376 44.376 20.504C44.9307 20.5893 45.4853 20.7173 46.04 20.888C46.5093 20.6747 47.2347 20.5253 48.216 20.44C49.24 20.312 50.648 20.248 52.44 20.248C52.8667 20.248 53.2507 20.2907 53.592 20.376C53.976 20.4613 54.3387 20.568 54.68 20.696ZM48.088 42.264C48.088 43.672 47.896 44.9947 47.512 46.232C47.128 47.4267 46.5733 48.472 45.848 49.368C45.1653 50.264 44.2907 50.968 43.224 51.48C42.2 51.992 41.048 52.248 39.768 52.248C38.4453 52.248 37.272 51.992 36.248 51.48C35.224 50.968 34.3493 50.264 33.624 49.368C32.9413 48.472 32.408 47.4267 32.024 46.232C31.6827 44.9947 31.512 43.672 31.512 42.264C31.512 40.856 31.6827 39.5333 32.024 38.296C32.408 37.016 32.9413 35.9067 33.624 34.968C34.3493 33.9867 35.224 33.2187 36.248 32.664C37.272 32.1093 38.4453 31.832 39.768 31.832C41.048 31.832 42.2 32.1093 43.224 32.664C44.2907 33.2187 45.1653 33.9867 45.848 34.968C46.5733 35.9067 47.128 37.016 47.512 38.296C47.896 39.5333 48.088 40.856 48.088 42.264ZM97.856 41.816C97.856 39.8107 97.4293 38.0187 96.576 36.44C95.7653 34.8187 94.6133 33.7093 93.12 33.112C91.84 33.112 90.7307 33.368 89.792 33.88C88.8533 34.392 88.064 35.0747 87.424 35.928C86.8267 36.7813 86.3787 37.7627 86.08 38.872C85.824 39.9813 85.696 41.112 85.696 42.264C85.696 44.2267 86.08 45.9547 86.848 47.448C87.6587 48.9413 88.7893 49.9653 90.24 50.52C91.52 50.52 92.6293 50.3067 93.568 49.88C94.5493 49.4107 95.36 48.792 96 48.024C96.64 47.2133 97.1093 46.296 97.408 45.272C97.7067 44.2053 97.856 43.0533 97.856 41.816ZM88.128 62.296C88.8533 62.424 89.6 62.5307 90.368 62.616C91.136 62.7013 91.904 62.744 92.672 62.744C96.1707 62.744 99.2 62.232 101.76 61.208C104.32 60.2267 106.432 58.8187 108.096 56.984C109.76 55.192 110.997 53.0373 111.808 50.52C112.619 48.0027 113.024 45.2507 113.024 42.264C113.024 39.2773 112.619 36.504 111.808 33.944C110.997 31.384 109.76 29.1653 108.096 27.288C106.432 25.4107 104.32 23.96 101.76 22.936C99.2 21.8693 96.1707 21.336 92.672 21.336C91.2213 21.336 89.7067 21.5067 88.128 21.848C86.9333 22.104 86.0587 22.3173 85.504 22.488C84.9493 22.6587 84.5653 22.744 84.352 22.744C84.224 22.744 84.16 22.68 84.16 22.552C84.16 22.3387 83.7547 22.1893 82.944 22.104C82.1333 22.0187 80.5547 21.976 78.208 21.976C77.0133 21.976 76.032 22.3813 75.264 23.192C74.496 24.0027 73.8773 25.4533 73.408 27.544C72.9813 29.592 72.6827 32.3867 72.512 35.928C72.3413 39.4693 72.256 43.9493 72.256 49.368C72.256 54.8293 72.3413 59.3093 72.512 62.808C72.6827 66.3493 72.9813 69.144 73.408 71.192C73.8773 73.2827 74.496 74.7333 75.264 75.544C76.032 76.3547 77.0133 76.76 78.208 76.76C79.4027 76.76 80.384 76.632 81.152 76.376C81.92 76.1627 82.5173 75.7573 82.944 75.16C83.4133 74.6053 83.7333 73.816 83.904 72.792C84.0747 71.768 84.16 70.488 84.16 68.952C84.16 66.3493 84.3307 64.5573 84.672 63.576C85.0133 62.5947 85.6747 62.104 86.656 62.104C87.04 62.104 87.5307 62.168 88.128 62.296ZM98.048 20.504C100.821 21.016 103.232 21.912 105.28 23.192C107.328 24.472 109.013 26.072 110.336 27.992C111.701 29.8693 112.704 32.024 113.344 34.456C113.984 36.888 114.304 39.4907 114.304 42.264C114.304 45.464 113.877 48.408 113.024 51.096C112.171 53.7413 110.848 56.024 109.056 57.944C107.307 59.864 105.067 61.3573 102.336 62.424C99.6053 63.4907 96.384 64.024 92.672 64.024C91.8613 64.024 91.0293 63.9813 90.176 63.896C89.3653 63.8107 88.5973 63.704 87.872 63.576C87.36 63.448 86.9547 63.384 86.656 63.384C86.1867 63.384 85.8667 63.768 85.696 64.536C85.5253 65.3467 85.44 66.8187 85.44 68.952C85.44 70.744 85.3333 72.216 85.12 73.368C84.9067 74.5627 84.5227 75.5013 83.968 76.184C83.4133 76.8667 82.6667 77.336 81.728 77.592C80.832 77.8907 79.6587 78.04 78.208 78.04C77.312 78.04 76.544 77.8907 75.904 77.592C74.5387 77.5493 73.408 77.0587 72.512 76.12C71.6587 75.224 70.976 73.688 70.464 71.512C69.952 69.336 69.5893 66.4133 69.376 62.744C69.2053 59.1173 69.12 54.5093 69.12 48.92C69.12 43.2453 69.2267 38.5733 69.44 34.904C69.6533 31.192 70.016 28.248 70.528 26.072C71.0827 23.896 71.8293 22.3813 72.768 21.528C73.7067 20.6747 74.9013 20.248 76.352 20.248C77.1627 20.248 78.08 20.248 79.104 20.248C80.128 20.2053 81.5147 20.3973 83.264 20.824C83.5627 20.9093 83.9253 20.8667 84.352 20.696C84.8213 20.4827 85.3547 20.312 85.952 20.184C86.72 20.0133 87.5093 19.8853 88.32 19.8C89.1733 19.672 90.0053 19.608 90.816 19.608C93.376 19.608 95.7867 19.9067 98.048 20.504ZM100.992 42.264C100.992 43.672 100.8 44.9947 100.416 46.232C100.032 47.4267 99.4773 48.472 98.752 49.368C98.0693 50.264 97.1947 50.968 96.128 51.48C95.104 51.992 93.952 52.248 92.672 52.248C91.392 52.248 90.24 51.992 89.216 51.48C88.192 50.968 87.3173 50.264 86.592 49.368C85.9093 48.472 85.376 47.4267 84.992 46.232C84.608 44.9947 84.416 43.672 84.416 42.264C84.416 40.856 84.608 39.5333 84.992 38.296C85.376 37.016 85.9093 35.9067 86.592 34.968C87.3173 33.9867 88.192 33.2187 89.216 32.664C90.24 32.1093 91.392 31.832 92.672 31.832C93.952 31.832 95.104 32.1093 96.128 32.664C97.1947 33.2187 98.0693 33.9867 98.752 34.968C99.4773 35.9067 100.032 37.016 100.416 38.296C100.8 39.5333 100.992 40.856 100.992 42.264Z" fill="#FF7A00"/>
<path d="M37.3134 36.7454C39.8537 36.0068 42.4403 37.7576 42.6986 40.3905C42.7316 40.7271 42.7241 41.0664 42.6762 41.4012L42.5017 42.6216C42.0501 45.7791 38.8071 47.7586 35.7642 46.7773C33.6879 46.1077 32.25 44.1647 32.25 41.9871C32.25 39.7537 33.725 37.7887 35.8696 37.1652L37.3134 36.7454Z" fill="#FF7A00" stroke="#FF7A00" stroke-width="0.5"/>
<path d="M89.3604 36.8978C91.869 36.0955 94.4746 37.8257 94.7086 40.4491C94.7351 40.7473 94.7291 41.0475 94.6905 41.3443L94.4786 42.974C94.0982 45.9003 91.1157 47.7302 88.3345 46.7436C86.4855 46.0877 85.25 44.3385 85.25 42.3766L85.25 41.6989C85.25 39.6219 86.5925 37.7831 88.5708 37.1504L89.3604 36.8978Z" fill="#FF7A00" stroke="#FF7A00" stroke-width="0.5"/>
<path d="M19.9311 72.8272L20.5719 73.4157L21.1503 72.7861L21.8573 73.4355L22.5168 72.7175L26.3721 76.2589L25.7126 76.9769L26.3975 77.6061L25.8191 78.2357L26.4819 78.8446L20.8703 84.9534L20.318 84.4461L19.4656 85.374L20.018 85.8814L19.0337 86.9529L17.9842 85.9889L18.7148 85.1935L18.1625 84.6862L18.9134 83.8687L18.6151 83.5947L17.8642 84.4122L14.6717 81.4796L15.2298 80.872L14.4124 80.1211L14.9908 79.4914L14.3501 78.9029L19.9311 72.8272ZM18.9305 79.0164L19.9799 79.9804L19.2493 80.7758L20.0446 81.5064L19.314 82.3017L20.1094 83.0324L19.602 83.5847L19.9224 83.879L25.057 78.2893L24.3942 77.6805L25.0537 76.9624L21.9054 74.0704L21.2458 74.7885L20.5941 74.1898L15.7639 79.448L16.4157 80.0467L15.8576 80.6543L18.2989 82.8969L18.8266 82.3224L18.0422 81.602L18.7729 80.8066L17.9665 80.0658L18.9305 79.0164Z" fill="#FF7A00"/>
<path d="M27.2036 88.0559L28.0191 88.6171L30.8 84.5766L31.9739 85.3846L28.8783 89.8822L28.0628 89.3209L27.578 90.0252L26.8861 89.549L26.2483 90.4757L23.0974 88.3071L23.7352 87.3804L22.9444 86.8361L23.4292 86.1318L22.8361 85.7236L25.9317 81.2259L27.0932 82.0254L24.3122 86.0658L24.9177 86.4826L24.2799 87.4093L26.5658 88.9826L27.2036 88.0559Z" fill="#FF7A00"/>
<path d="M36.3345 93.1891L37.6037 93.837L36.949 95.1195L35.9871 94.6285L35.5643 95.4569L30.955 93.1041L31.446 92.1422L30.4841 91.6512L32.8846 86.9484L33.8465 87.4394L34.3375 86.4775L38.9468 88.8302L38.4558 89.7921L39.4177 90.2832L37.9447 93.1689L32.6674 90.4752L31.89 91.9983L35.898 94.0442L36.3345 93.1891ZM37.3165 91.2652L37.9985 89.9292L33.9904 87.8834L33.3085 89.2194L37.3165 91.2652Z" fill="#FF7A00"/>
<path d="M39.5856 94.7823L40.9144 95.254L40.5882 96.1728L44.8289 97.6783L45.4511 95.9254L41.1397 94.3949L41.4709 93.462L40.3542 93.0655L41.2123 90.6483L42.1685 91.0037L42.5299 89.9859L47.2088 91.6469L46.8826 92.5657L47.8721 92.917L47.4004 94.2458L46.0575 93.769L46.3837 92.8502L42.4257 91.4451L41.8235 93.1414L46.2762 94.7221L45.9843 95.5894L46.9596 95.9357L46.0212 98.5791L45.0317 98.2278L44.7106 99.1325L39.7913 97.3862L40.1175 96.4673L39.1139 96.1111L39.5856 94.7823Z" fill="#FF7A00"/>
<path d="M52.7303 88.6194L54.1211 88.9299L53.1472 93.2925L55.1236 93.7337L54.8164 95.1098L52.8401 94.6686L51.8662 99.0313L53.8426 99.4724L53.5354 100.849L51.2077 100.329L51.443 99.2749L50.4035 99.0429L51.4493 94.3582L49.3265 93.8843L49.6337 92.5082L51.7565 92.9821L52.7303 88.6194Z" fill="#FF7A00"/>
<path d="M63.5054 90.0347L70.2704 90.0031L70.2743 90.8581L71.3243 90.8532L71.3287 91.7832L72.4087 91.7782L72.4231 94.8681L71.3431 94.8732L71.3475 95.8032L70.2975 95.8081L70.3015 96.6631L64.9465 96.6881L64.9704 101.788L63.5604 101.795L63.5054 90.0347ZM69.9159 94.3998L70.9959 94.3948L70.9859 92.2648L69.9059 92.2699L69.9019 91.4149L64.922 91.4381L64.9399 95.2781L69.9199 95.2548L69.9159 94.3998Z" fill="#FF7A00"/>
<path d="M74.1932 97.7522L75.2612 97.5913L75.1003 96.5234L79.8764 95.8038L79.6753 94.4689L74.8992 95.1884L74.6891 93.7942L79.8064 93.0232L79.9673 94.0912L81.0352 93.9303L81.7726 98.825L82.8406 98.6642L83.0506 100.058L81.6119 100.275L81.451 99.2072L80.7538 99.3123L80.9147 100.38L75.7975 101.151L75.6366 100.083L74.5687 100.244L74.1932 97.7522ZM80.0864 97.1981L75.6367 97.8685L75.9138 99.7077L80.3635 99.0373L80.0864 97.1981Z" fill="#FF7A00"/>
<path d="M85.0567 91.7552L88.3764 90.8161L88.7602 92.1728L85.8014 93.0099L86.0954 94.0491L85.0128 94.3554L86.3603 99.1184L85.0036 99.5023L82.9783 92.3432L84.335 91.9594L84.629 92.9986L85.3507 92.7945L85.0567 91.7552Z" fill="#FF7A00"/>
<path d="M90.3913 85.1261L91.7105 84.5871L93.4011 88.7251L95.2756 87.9593L95.8089 89.2645L93.9343 90.0304L95.6249 94.1684L97.4995 93.4025L98.0327 94.7078L95.8249 95.6098L95.4164 94.61L94.4305 95.0128L92.6152 90.5693L90.6017 91.3919L90.0685 90.0866L92.0819 89.2641L90.3913 85.1261Z" fill="#FF7A00"/>
<path d="M97.1326 86.9413L102.594 83.8913L103.12 84.8342L104.063 84.3076L107.091 89.7293L105.847 90.4242L102.98 85.2906L99.0511 87.4848L101.918 92.6184L100.687 93.3059L97.1326 86.9413Z" fill="#FF7A00"/>
<path d="M112.392 82.7794L113.535 81.9282L114.395 83.083L113.529 83.7282L114.085 84.474L109.934 87.5653L109.289 86.6991L108.423 87.3443L105.269 83.1098L106.135 82.4646L105.49 81.5985L109.64 78.5072L110.286 79.3734L111.152 78.7283L113.087 81.3267L108.335 84.866L109.357 86.2373L112.966 83.5493L112.392 82.7794ZM111.102 81.0471L110.206 79.8441L106.597 82.5322L107.493 83.7352L111.102 81.0471Z" fill="#FF7A00"/>
<path d="M113.19 75.3273L115.687 72.9463L116.66 73.9667L114.435 76.0889L115.18 76.8704L114.366 77.6468L117.782 81.229L116.762 82.2021L111.627 76.818L112.647 75.8449L113.393 76.6265L113.936 76.1089L113.19 75.3273Z" fill="#FF7A00"/>
</svg>
